<svg id="Слой_5" xmlns="http://www.w3.org/2000/svg" viewBox="0 0 58.6 14.2"><style>.st0{fill:#393f6b}.st2{fill:#fff}</style><path class="st0" d="M26.6 5.8c2.1 0 3.6 1.6 3.6 3.6v.5c0 .2-.2.3-.4.3H24c.1 1.3 1.3 2.6 2.7 2.6.8 0 1.5-.3 2-.6.3-.2.4-.3.6 0 .1.2.2.3.3.5.1.2.2.3-.1.5-.5.4-1.6.9-2.9.9-2.4 0-3.9-1.9-3.9-4.2 0-2.1 1.4-4.1 3.9-4.1zm2.2 3.4C28.7 8 27.8 7 26.6 7c-1.3 0-2.4 1-2.5 2.2h4.7zM32.4.4c0-.2.2-.4.4-.4h.6c.2 0 .4.2.4.4v5.9s.8-.5 2.1-.5c2.4 0 3.8 1.8 3.8 4.2 0 2.3-1.6 4.2-3.6 4.2-1.5 0-2.4-1.1-2.4-1.1l-.1.5c0 .2-.2.3-.3.3h-.4c-.2 0-.4-.2-.4-.4V.4zm3.5 12.5c1.5 0 2.4-1.4 2.4-2.9 0-1.6-.9-2.8-2.6-2.8-1.1 0-1.9.5-1.9.5v4c0-.1.7 1.2 2.1 1.2zM41.7 1.4c0-.5.4-1 .9-1s1 .4 1 1c0 .5-.4.9-1 .9-.5 0-.9-.4-.9-.9zm.2 5c0-.2.2-.4.4-.4h.6c.2 0 .4.2.4.4v7.2c0 .2-.2.4-.4.4h-.6c-.2 0-.4-.2-.4-.4V6.4zM46.1 6.4c0-.2.2-.4.4-.4h.4c.2 0 .3.1.3.2l.2.6s.9-1.1 2.6-1.1c1.2 0 2 .5 2.6 1.3.1-.1 1.4-1.3 3-1.3 2.3 0 3.1 1.5 3.1 3.6v4.2c0 .2-.2.4-.4.4h-.6c-.2 0-.4-.2-.4-.4V9.4c0-1.5-.6-2.2-1.8-2.2-1.3 0-2.2.9-2.4 1.1-.1.3 0 .7 0 1.1v4.2c0 .2-.2.4-.4.4h-.6c-.2 0-.4-.2-.4-.4V9.4c0-1.5-.7-2.2-1.9-2.2-1.4 0-2.3 1.1-2.3 1.1v5.3c0 .2-.2.4-.4.4h-.6c-.2 0-.4-.2-.4-.4V6.4z"/><linearGradient id="SVGID_1_" gradientUnits="userSpaceOnUse" x1="-2" y1="467.684" x2="9.625" y2="467.684" gradientTransform="translate(2 -462)"><stop offset="0" stop-color="#4ae1d2"/><stop offset="1" stop-color="#2e3280"/></linearGradient><path d="M9.1 2.7c-.1.2-.3.5-.4.8l-.3.9-.3.8c-.1.5-.3 1-.5 1.4-.1.5-.3 1-.5 1.3-.2.3-.4.7-.7 1-.3.2-.5.3-.8.3-.3 0-.6-.1-.9-.4-.2-.2-.5-.5-.8-.9-.2-.3-.5-.6-.7-1-.4-.7-.8-1.4-1.2-2.3C1.3 3.1.8 1.7.4.6.4.5.3.5.3.5H.2C.1.5.1.5.1.6 0 .6 0 .6 0 .7v.1C.3 2 .8 3.5 1.4 5.2c.3.7.6 1.6 1.1 2.5.2.5.5.9.7 1.3.3.5.6.9.9 1.2.2.2.4.4.6.5.3.2.5.3.8.3.3 0 .6 0 .8-.1.3-.1.5-.2.8-.4.5-.5.8-1 1.1-1.4.3-.4.5-.9.8-1.5.2-.5.4-1 .6-1.6l.3-.7c0-.3.1-.5.2-.8.5-1.2 1.1-1.2 1.6-.4-1-1.7-2.6-1.4-2.6-1.4z" fill="url(#SVGID_1_)"/><path class="st0" d="M21.2 0c-.2 0-.4.2-.5.4v.1l-.3 1.2c-.1.4-.2.9-.3 1.3v.2c-.2 1-.5 2.1-.7 3.1-.3 1.1-.6 2.1-.9 3.1-.2.5-.4 1-.6 1.4l-.3.6c-.1.2-.5 1-1.1.1l-.3-.6c-.5-.9-.9-2-1.2-3l-.3-.7c-.3-.7-.5-1.5-.9-2.3 0-.1-.1-.2-.1-.2-.2-.5-.4-1.1-.7-1.6-.2-.3-.3-.6-.5-.8-.2-.2-.4-.5-.7-.8-.2-.1-.4-.2-.5-.3-.2-.1-.4-.1-.6 0-.2 0-.4.1-.6.3-.2.1-.3.2-.4.4-.3.3-.5.5-.6.8 0 0 1.6-.2 2.5 1.4v.1c0 .1.1.1.1.2.2.4.4.8.6 1.4.3.7.6 1.4.8 2.2l.3.9c.2.5.4 1.1.6 1.6.2.4.4 1 .7 1.6.1.2.3.5.5.8.2.2.4.5.7.8.2.1.3.2.5.3.2.1.4.1.6.1.3 0 .5-.1.6-.2.2-.1.3-.2.4-.4.3-.3.4-.6.6-.8.1-.3.3-.5.4-.8.2-.5.4-1 .6-1.7.3-1.1.6-2.3.8-3.3.2-.9.4-2 .6-3.2v-.3c.1-.4.1-.9.2-1.3l.2-1.3V.6c.4-.4.1-.6-.2-.6z"/><path class="st2" d="M26.6 5.8c2.1 0 3.6 1.6 3.6 3.6v.5c0 .2-.2.3-.4.3H24c.1 1.3 1.3 2.6 2.7 2.6.8 0 1.5-.3 2-.6.3-.2.4-.3.6 0 .1.2.2.3.3.5.1.2.2.3-.1.5-.5.4-1.6.9-2.9.9-2.4 0-3.9-1.9-3.9-4.2 0-2.1 1.4-4.1 3.9-4.1zm2.2 3.4C28.7 8 27.8 7 26.6 7c-1.3 0-2.4 1-2.5 2.2h4.7zM32.4.4c0-.2.2-.4.4-.4h.6c.2 0 .4.2.4.4v5.9s.8-.5 2.1-.5c2.4 0 3.8 1.8 3.8 4.2 0 2.3-1.6 4.2-3.6 4.2-1.5 0-2.4-1.1-2.4-1.1l-.1.5c0 .2-.2.3-.3.3h-.4c-.2 0-.4-.2-.4-.4V.4zm3.5 12.5c1.5 0 2.4-1.4 2.4-2.9 0-1.6-.9-2.8-2.6-2.8-1.1 0-1.9.5-1.9.5v4c0-.1.7 1.2 2.1 1.2zM41.7 1.4c0-.5.4-1 .9-1s1 .4 1 1c0 .5-.4.9-1 .9-.5 0-.9-.4-.9-.9zm.2 5c0-.2.2-.4.4-.4h.6c.2 0 .4.2.4.4v7.2c0 .2-.2.4-.4.4h-.6c-.2 0-.4-.2-.4-.4V6.4zM46.1 6.4c0-.2.2-.4.4-.4h.4c.2 0 .3.1.3.2l.2.6s.9-1.1 2.6-1.1c1.2 0 2 .5 2.6 1.3.1-.1 1.4-1.3 3-1.3 2.3 0 3.1 1.5 3.1 3.6v4.2c0 .2-.2.4-.4.4h-.6c-.2 0-.4-.2-.4-.4V9.4c0-1.5-.6-2.2-1.8-2.2-1.3 0-2.2.9-2.4 1.1-.1.3 0 .7 0 1.1v4.2c0 .2-.2.4-.4.4h-.6c-.2 0-.4-.2-.4-.4V9.4c0-1.5-.7-2.2-1.9-2.2-1.4 0-2.3 1.1-2.3 1.1v5.3c0 .2-.2.4-.4.4h-.6c-.2 0-.4-.2-.4-.4V6.4z"/><linearGradient id="SVGID_2_" gradientUnits="userSpaceOnUse" x1="-2" y1="467.684" x2="9.625" y2="467.684" gradientTransform="translate(2 -462)"><stop offset="0" stop-color="#4ae1d2"/><stop offset="1" stop-color="#fff"/></linearGradient><path d="M9.1 2.7c-.1.2-.3.5-.4.8l-.3.9-.3.8c-.1.5-.3 1-.5 1.4-.1.5-.3 1-.5 1.3-.2.3-.4.7-.7 1-.3.2-.5.3-.8.3-.3 0-.6-.1-.9-.4-.2-.2-.5-.5-.8-.9-.2-.3-.5-.6-.7-1-.4-.7-.8-1.4-1.2-2.3C1.3 3.1.8 1.7.4.6.4.5.3.5.3.5H.2C.1.5.1.5.1.6 0 .6 0 .6 0 .7v.1C.3 2 .8 3.5 1.4 5.2c.3.7.6 1.6 1.1 2.5.2.5.5.9.7 1.3.3.5.6.9.9 1.2.2.2.4.4.6.5.3.2.5.3.8.3.3 0 .6 0 .8-.1.3-.1.5-.2.8-.4.5-.5.8-1 1.1-1.4.3-.4.5-.9.8-1.5.2-.5.4-1 .6-1.6l.3-.7c0-.3.1-.5.2-.8.5-1.2 1.1-1.2 1.6-.4-1-1.7-2.6-1.4-2.6-1.4z" fill="url(#SVGID_2_)"/><path class="st2" d="M21.2 0c-.2 0-.4.2-.5.4v.1l-.3 1.2c-.1.4-.2.9-.3 1.3v.2c-.2 1-.5 2.1-.7 3.1-.3 1.1-.6 2.1-.9 3.1-.2.5-.4 1-.6 1.4l-.3.6c-.1.2-.5 1-1.1.1l-.3-.6c-.5-.9-.9-2-1.2-3l-.3-.7c-.3-.7-.5-1.5-.9-2.3 0-.1-.1-.2-.1-.2-.2-.5-.4-1.1-.7-1.6-.2-.3-.3-.6-.5-.8-.2-.2-.4-.5-.7-.8-.2-.1-.4-.2-.5-.3-.2-.1-.4-.1-.6 0-.2 0-.4.1-.6.3-.2.1-.3.2-.4.4-.3.3-.5.5-.6.8 0 0 1.6-.2 2.5 1.4v.1c0 .1.1.1.1.2.2.4.4.8.6 1.4.3.7.6 1.4.8 2.2l.3.9c.2.5.4 1.1.6 1.6.2.4.4 1 .7 1.6.1.2.3.5.5.8.2.2.4.5.7.8.2.1.3.2.5.3.2.1.4.1.6.1.3 0 .5-.1.6-.2.2-.1.3-.2.4-.4.3-.3.4-.6.6-.8.1-.3.3-.5.4-.8.2-.5.4-1 .6-1.7.3-1.1.6-2.3.8-3.3.2-.9.4-2 .6-3.2v-.3c.1-.4.1-.9.2-1.3l.2-1.3V.6c.4-.4.1-.6-.2-.6z"/></svg>